<svg id="Layer_1" data-name="Layer 1" xmlns="http://www.w3.org/2000/svg" xmlns:xlink="http://www.w3.org/1999/xlink" viewBox="0 0 2719.1 790.5"><defs><style>.cls-1{fill:#fff;}.cls-2{fill:url(#linear-gradient);}.cls-3{fill:url(#linear-gradient-2);}.cls-4{fill:url(#linear-gradient-3);}.cls-5{fill:url(#linear-gradient-4);}.cls-6{fill:url(#linear-gradient-5);}.cls-7{fill:url(#linear-gradient-6);}.cls-8{fill:url(#linear-gradient-7);}.cls-9{fill:url(#linear-gradient-8);}.cls-10{fill:url(#linear-gradient-9);}.cls-11{fill:url(#linear-gradient-10);}.cls-12{fill:url(#linear-gradient-11);}.cls-13{fill:url(#linear-gradient-12);}.cls-14{fill:url(#linear-gradient-13);}.cls-15{fill:url(#linear-gradient-14);}.cls-16{fill:url(#linear-gradient-15);}.cls-17{fill:url(#linear-gradient-16);}.cls-18{fill:url(#linear-gradient-17);}.cls-19{fill:url(#linear-gradient-18);}.cls-20{fill:url(#linear-gradient-19);}.cls-21{fill:url(#linear-gradient-20);}.cls-22{fill:url(#linear-gradient-21);}.cls-23{fill:url(#linear-gradient-22);}.cls-24{fill:url(#linear-gradient-23);}</style><linearGradient id="linear-gradient" x1="201.5" y1="220.55" x2="292.07" y2="161.68" gradientUnits="userSpaceOnUse"><stop offset="0" stop-color="#e7c800"/><stop offset="0.62" stop-color="#f3de1a"/><stop offset="1" stop-color="#fbed2c"/><stop offset="1" stop-color="#fcee2e"/></linearGradient><linearGradient id="linear-gradient-2" x1="124.29" y1="101.77" x2="214.86" y2="42.9" xlink:href="#linear-gradient"/><linearGradient id="linear-gradient-3" x1="180.54" y1="188.31" x2="271.11" y2="129.44" xlink:href="#linear-gradient"/><linearGradient id="linear-gradient-4" x1="249.23" y1="293.98" x2="339.8" y2="235.11" xlink:href="#linear-gradient"/><linearGradient id="linear-gradient-5" x1="290.45" y1="350.3" x2="372.43" y2="297.01" xlink:href="#linear-gradient"/><linearGradient id="linear-gradient-6" x1="349.04" y1="350.09" x2="380.79" y2="329.46" xlink:href="#linear-gradient"/><linearGradient id="linear-gradient-7" x1="245.24" y1="335.51" x2="273.64" y2="317.06" xlink:href="#linear-gradient"/><linearGradient id="linear-gradient-8" x1="270.22" y1="356.03" x2="344.64" y2="307.66" xlink:href="#linear-gradient"/><linearGradient id="linear-gradient-9" x1="76.34" y1="343.76" x2="134.49" y2="305.96" xlink:href="#linear-gradient"/><linearGradient id="linear-gradient-10" x1="29.5" y1="224.43" x2="83.21" y2="189.52" xlink:href="#linear-gradient"/><linearGradient id="linear-gradient-11" x1="113.01" y1="84.41" x2="203.58" y2="25.54" xlink:href="#linear-gradient"/><linearGradient id="linear-gradient-12" x1="42.26" y1="650.11" x2="644.52" y2="337.66" gradientUnits="userSpaceOnUse"><stop offset="0" stop-color="#3d7aed"/><stop offset="1" stop-color="#3dc8ed"/></linearGradient><linearGradient id="linear-gradient-13" x1="74.16" y1="711.61" x2="676.44" y2="399.15" xlink:href="#linear-gradient-12"/><linearGradient id="linear-gradient-14" x1="-70.66" y1="467.13" x2="531.63" y2="154.66" xlink:href="#linear-gradient-12"/><linearGradient id="linear-gradient-15" x1="-36.77" y1="532.47" x2="565.53" y2="220" xlink:href="#linear-gradient-12"/><linearGradient id="linear-gradient-16" x1="16.39" y1="634.92" x2="618.68" y2="322.46" xlink:href="#linear-gradient-12"/><linearGradient id="linear-gradient-17" x1="-21.2" y1="562.48" x2="581.09" y2="250.01" xlink:href="#linear-gradient-12"/><linearGradient id="linear-gradient-18" x1="27.67" y1="656.65" x2="629.95" y2="344.19" xlink:href="#linear-gradient-12"/><linearGradient id="linear-gradient-19" x1="69.16" y1="736.64" x2="671.45" y2="424.18" xlink:href="#linear-gradient-12"/><linearGradient id="linear-gradient-20" x1="119.21" y1="798.46" x2="721.5" y2="486" xlink:href="#linear-gradient-12"/><linearGradient id="linear-gradient-21" x1="73.91" y1="711.13" x2="676.19" y2="398.67" xlink:href="#linear-gradient-12"/><linearGradient id="linear-gradient-22" x1="2.48" y1="608.1" x2="604.76" y2="295.64" xlink:href="#linear-gradient-12"/><linearGradient id="linear-gradient-23" x1="510.98" y1="792.07" x2="697.77" y2="626.78" gradientUnits="userSpaceOnUse"><stop offset="0" stop-color="#00d01d"/><stop offset="0.37" stop-color="#3ee33f"/><stop offset="0.8" stop-color="#81f764"/><stop offset="1" stop-color="#9bff73"/></linearGradient></defs><title>raniachams-logo</title><path class="cls-1" d="M1012,396.6l-43.5-78.7H934v78.7H886.9V175.2H990.4c46.2,0,74.4,30.2,74.4,71.3,0,39.2-24.6,60.1-48.5,65.8l49.8,84.3Zm4.7-150.1c0-18.5-14.3-29.8-33.2-29.8H934v59.7h49.5C1002.4,276.4,1016.7,265.1,1016.7,246.5Z" transform="translate(-21.3 -6.4)"/><path class="cls-1" d="M1189,396.6V380c-11,13-29.9,20.6-50.8,20.6-25.6,0-55.8-17.3-55.8-53.1,0-37.5,30.2-51.8,55.8-51.8,21.2,0,40.2,7,50.8,19.6V293.7c0-16.3-14-26.9-35.2-26.9-17.3,0-33.2,6.3-46.8,18.9l-16-28.2c19.6-17.3,44.9-25.2,70.1-25.2,36.5,0,70,14.6,70,60.7V396.6Zm0-38.5V338.2c-7-9.3-20.3-14-33.9-14-16.6,0-30.2,8.7-30.2,24.3s13.6,23.5,30.2,23.5C1168.7,372,1182,367.4,1189,358.1Z" transform="translate(-21.3 -6.4)"/><path class="cls-1" d="M1381.2,396.6V299.7c0-22.3-11.6-29.9-29.5-29.9s-29.6,9.3-36.6,18.9V396.6H1273V236.3h42.1v20.9c10.3-12.3,29.9-24.9,56.1-24.9,35.2,0,52.2,19.9,52.2,51.1V396.6Z" transform="translate(-21.3 -6.4)"/><path class="cls-1" d="M1460.9,193.8a25.1,25.1,0,0,1,25.2-24.9,24.8,24.8,0,0,1,25.2,24.9,25.2,25.2,0,0,1-25.2,25.2A25.4,25.4,0,0,1,1460.9,193.8Zm4.3,202.8V236.3h42.2V396.6Z" transform="translate(-21.3 -6.4)"/><path class="cls-1" d="M1645.5,396.6V380c-11,13-29.9,20.6-50.8,20.6-25.6,0-55.8-17.3-55.8-53.1,0-37.5,30.2-51.8,55.8-51.8,21.2,0,40.1,7,50.8,19.6V293.7c0-16.3-14-26.9-35.2-26.9-17.3,0-33.2,6.3-46.8,18.9l-16-28.2c19.6-17.3,44.9-25.2,70.1-25.2,36.5,0,70,14.6,70,60.7V396.6Zm0-38.5V338.2c-7-9.3-20.3-14-33.9-14-16.6,0-30.2,8.7-30.2,24.3S1595,372,1611.6,372C1625.2,372,1638.5,367.4,1645.5,358.1Z" transform="translate(-21.3 -6.4)"/><path class="cls-1" d="M1719.8,286.1c0-68.1,51.5-114.6,117.9-114.6,48.8,0,77,26.6,92.6,54.1l-40.5,20c-9.3-18-29.2-32.3-52.1-32.3-40.2,0-69.4,30.9-69.4,72.8s29.2,72.7,69.4,72.7c22.9,0,42.8-14,52.1-32.2l40.5,19.5c-15.9,27.6-43.8,54.5-92.6,54.5C1771.3,400.6,1719.8,354.1,1719.8,286.1Z" transform="translate(-21.3 -6.4)"/><path class="cls-1" d="M2066.1,396.6V299c0-22.2-11.6-29.2-29.9-29.2-16.2,0-29.2,9.3-36.5,18.9V396.6h-42.1V175.2h42.1v82c10.3-12.3,30.2-24.9,56.5-24.9,35.1,0,52.1,19.2,52.1,50.4V396.6Z" transform="translate(-21.3 -6.4)"/><path class="cls-1" d="M2246.4,396.6V380c-11,13-29.9,20.6-50.8,20.6-25.6,0-55.8-17.3-55.8-53.1,0-37.5,30.2-51.8,55.8-51.8,21.2,0,40.2,7,50.8,19.6V293.7c0-16.3-14-26.9-35.2-26.9-17.3,0-33.2,6.3-46.8,18.9l-16-28.2c19.6-17.3,44.9-25.2,70.1-25.2,36.5,0,70.1,14.6,70.1,60.7V396.6Zm0-38.5V338.2c-7-9.3-20.3-14-33.9-14-16.6,0-30.2,8.7-30.2,24.3s13.6,23.5,30.2,23.5C2226.1,372,2239.4,367.4,2246.4,358.1Z" transform="translate(-21.3 -6.4)"/><path class="cls-1" d="M2529.3,396.6V295.4c0-15-6.7-25.6-24-25.6-14.9,0-27.2,9.9-33.2,18.6V396.6h-42.4V295.4c0-15-6.7-25.6-24-25.6-14.6,0-26.8,9.9-33.2,18.9V396.6h-42.1V236.3h42.1v20.9c6.7-9.7,27.9-24.9,52.5-24.9s38.5,10.9,44.5,29.2c9.3-14.6,30.5-29.2,55.1-29.2,29.6,0,47.1,15.6,47.1,48.4V396.6Z" transform="translate(-21.3 -6.4)"/><path class="cls-1" d="M2599.3,375.7l18.3-29.6c11.6,11,35.5,22,55.4,22,18.3,0,26.9-7.3,26.9-17.3,0-26.6-95.3-5-95.3-68.1,0-26.9,23.6-50.4,65.7-50.4,27.3,0,48.9,9.3,64.8,21.9l-16.9,28.9c-9.7-10.3-27.9-18.6-47.5-18.6-15.3,0-25.3,6.9-25.3,15.9,0,23.9,95,4,95,68.7,0,29.3-24.9,51.5-69.4,51.5C2643.1,400.6,2616.2,391.3,2599.3,375.7Z" transform="translate(-21.3 -6.4)"/><path class="cls-1" d="M885.9,650.5l25.6-35.8a96.8,96.8,0,0,0,70.3,29.9c25.9,0,38.5-12,38.5-24.6,0-39.2-134.4-12.7-134.4-96,0-36.9,38.8-67,91-67,35.1,0,64.4,10.6,86.3,30.9l-26.3,34.5c-17.9-16.6-37.3-27.8-59.9-27.8-20.2,0-44.2,13.5-44.2,26.8,0,35.2,135.4,10.6,135.4,93.3,0,40.5-28.9,71-88.7,71C937,685.7,906.5,671.5,885.9,650.5Z" transform="translate(-21.3 -6.4)"/><path class="cls-1" d="M1088.7,601.4c0-45.5,31.9-84,84.7-84s85,38.5,85,84-31.9,84.3-85,84.3S1088.7,647.2,1088.7,601.4Zm125.9,0c0-24.9-15-46.5-41.2-46.5s-40.8,21.6-40.8,46.5,14.6,46.8,40.8,46.8S1214.6,626.6,1214.6,601.4Z" transform="translate(-21.3 -6.4)"/><path class="cls-1" d="M1289.6,681.8V460.3h42.2V681.8Z" transform="translate(-21.3 -6.4)"/><path class="cls-1" d="M1469.9,681.8V665.2c-11,12.9-29.9,20.5-50.8,20.5-25.6,0-55.8-17.2-55.8-53.1,0-37.5,30.2-51.8,55.8-51.8,21.2,0,40.1,7,50.8,19.6V578.8c0-16.2-14-26.9-35.2-26.9-17.3,0-33.2,6.4-46.8,19l-16-28.3c19.6-17.2,44.8-25.2,70.1-25.2,36.5,0,70,14.6,70,60.8V681.8Zm0-38.6V623.3c-7-9.3-20.3-13.9-33.9-13.9-16.6,0-30.2,8.6-30.2,24.2s13.6,23.6,30.2,23.6C1449.6,657.2,1462.9,652.5,1469.9,643.2Z" transform="translate(-21.3 -6.4)"/><path class="cls-1" d="M1549.5,478.9c0-13.9,11.7-24.9,25.3-24.9a25,25,0,0,1,25.2,24.9,25.2,25.2,0,0,1-25.2,25.2A25.5,25.5,0,0,1,1549.5,478.9Zm4.4,202.9V521.4H1596V681.8Z" transform="translate(-21.3 -6.4)"/><path class="cls-1" d="M1637.9,681.8V521.4H1680v21.9c11.3-14.3,31.2-25.9,51.1-25.9v41.2a52.5,52.5,0,0,0-11.6-1c-13.9,0-32.5,8-39.5,18.2v106Z" transform="translate(-21.3 -6.4)"/><path class="cls-1" d="M1747.1,601.4c0-46.5,34.2-84,83-84s80.3,35.9,80.3,88.3V615H1791.2c2.7,20.3,19,37.2,46.2,37.2,13.6,0,32.5-6,42.8-15.9l18.6,27.2c-15.9,14.6-41.2,22.2-66.1,22.2C1783.9,685.7,1747.1,652.9,1747.1,601.4Zm83-50.5c-26.2,0-37.5,19.6-39.5,35.6h79C1868.6,571.2,1858,550.9,1830.1,550.9Z" transform="translate(-21.3 -6.4)"/><path class="cls-2" d="M331.2,231.5a111.7,111.7,0,0,1-103.3,87.2l20.5-87.2H233.1l-20.3,87h-1a100.5,100.5,0,0,1-11-1.6,111.5,111.5,0,1,1,130.4-85.3Z" transform="translate(-21.3 -6.4)"/><path class="cls-3" d="M233.2,22.6l1,36.9v1.3a16.6,16.6,0,0,1-33.1.9l-1-39.6a16.6,16.6,0,0,1,33-.9A6.6,6.6,0,0,1,233.2,22.6Z" transform="translate(-21.3 -6.4)"/><path class="cls-4" d="M361.1,85.2l-25.5,26.6-1,1a16.6,16.6,0,0,1-23.9-23l27.5-28.5A16.6,16.6,0,0,1,362,84.2,2.8,2.8,0,0,1,361.1,85.2Z" transform="translate(-21.3 -6.4)"/><path class="cls-5" d="M406.6,220.2l-36.9.5h-1.4a16.6,16.6,0,0,1-.5-33.1l39.6-.6a16.6,16.6,0,0,1,.5,33.1Z" transform="translate(-21.3 -6.4)"/><path class="cls-6" d="M338.5,297l16,15.6-8.2,37.5a15.9,15.9,0,0,1-2.7-1.8l-1-.9-26.3-25.8a4.1,4.1,0,0,1-.9-1A16.6,16.6,0,0,1,338.5,297Z" transform="translate(-21.3 -6.4)"/><path class="cls-7" d="M366.1,347.2l-1.2,1.1,4.4-19.8A16.6,16.6,0,0,1,366.1,347.2Z" transform="translate(-21.3 -6.4)"/><path class="cls-8" d="M239.8,350.9l-19.2-1,2.8-12.1h.1A16.6,16.6,0,0,1,239.8,350.9Z" transform="translate(-21.3 -6.4)"/><path class="cls-9" d="M240.3,392.6A16.6,16.6,0,0,1,223.9,408a16.7,16.7,0,0,1-14.8-8.9l7.8-33.4,23.3,1.2Z" transform="translate(-21.3 -6.4)"/><path class="cls-10" d="M80.6,326.2l26.1-26.1,1-.9a16.6,16.6,0,0,1,23.4,23.4l-28,27.9a16.6,16.6,0,0,1-23.4-23.4Z" transform="translate(-21.3 -6.4)"/><path class="cls-11" d="M38,190.3l36.9.2h1.3a16.7,16.7,0,0,1,15.2,16.7,16.5,16.5,0,0,1-15.3,16.4l-39.6-.2a16.6,16.6,0,0,1,.2-33.1Z" transform="translate(-21.3 -6.4)"/><path class="cls-12" d="M104.6,64.4l25.8,26.4.9,1a16.6,16.6,0,0,1-23.6,23.1L80,86.6a16.6,16.6,0,0,1,23.6-23.1Z" transform="translate(-21.3 -6.4)"/><polygon class="cls-1" points="411.1 225.1 366.8 352.4 341.6 351.1 343.6 341.9 348 322.1 369.2 225.1 411.1 225.1"/><path class="cls-13" d="M507.4,735.2c-59-13.4-344.5-78.8-358.7-82.6a17.3,17.3,0,0,1-5.6-2.2c-7.2-4-11.2-11.2-13.6-18.1l71.3-315.5,19.3-85.3h13l-20.3,87-21,89.7-51,218.5,353.4,69.2A165.3,165.3,0,0,0,507.4,735.2Z" transform="translate(-21.3 -6.4)"/><path class="cls-14" d="M769.2,231.5,719,511.5a161.5,161.5,0,0,0-32.6-9.7l54.1-270.3Z" transform="translate(-21.3 -6.4)"/><polygon class="cls-15" points="350.9 225.1 333.2 306.2 325 343.7 323.6 350.1 218.5 344.5 199.3 343.5 202.1 331.5 206.6 312.3 227.1 225.1 350.9 225.1"/><polygon class="cls-16" points="513.8 225.1 484.5 358.7 366.8 352.4 341.6 351.1 343.6 341.9 348 322.1 369.2 225.1 513.8 225.1"/><polygon class="cls-17" points="481.1 374.4 451.5 510.3 310.8 492.4 326 422.6 338.2 366.9 361.3 368.1 481.1 374.4"/><polygon class="cls-18" points="320.2 365.9 308.3 420.3 293 490.1 168.6 474.3 185.2 403.8 187.8 392.7 195.6 359.3 218.9 360.6 320.2 365.9"/><polygon class="cls-19" points="289.6 505.7 262.4 630.4 137.6 606.6 165 489.9 289.6 505.7"/><polygon class="cls-20" points="448.1 525.8 418.7 660.3 279.9 633.7 307.4 508 448.1 525.8"/><path class="cls-21" d="M491.1,663.8a109.7,109.7,0,0,0,.6,12.8l-31.4-6.1,29.6-135.7,55.2,7A164.8,164.8,0,0,0,491.1,663.8Z" transform="translate(-21.3 -6.4)"/><path class="cls-22" d="M688.4,390.6,667.3,499.4h-.1c-3.8-.3-7.5-.4-11.2-.4a163.4,163.4,0,0,0-93.4,29.1h-.2l-69.1-8.9,30-137.3Z" transform="translate(-21.3 -6.4)"/><polygon class="cls-23" points="698 225.1 670 368.5 505.4 359.8 534.9 225.1 698 225.1"/><path class="cls-24" d="M656,530.7A133.1,133.1,0,1,0,789,663.8C789,590.4,729.4,530.7,656,530.7ZM635.3,771l21.5-84.9H606.4l25.7-113.2h45.7L649.1,654h63.1Z" transform="translate(-21.3 -6.4)"/></svg>